<?xml version="1.0" standalone="no"?>
<!DOCTYPE svg PUBLIC "-//W3C//DTD SVG 20010904//EN"
 "http://www.w3.org/TR/2001/REC-SVG-20010904/DTD/svg10.dtd">
<svg version="1.0" xmlns="http://www.w3.org/2000/svg"
 width="270.000000pt" height="270.000000pt" viewBox="0 0 270.000000 270.000000"
 preserveAspectRatio="xMidYMid meet">
<metadata>
Created by potrace 1.14, written by Peter Selinger 2001-2017
</metadata>
<g transform="translate(0.000000,270.000000) scale(0.100000,-0.100000)"
fill="#000000" stroke="none">
<path d="M862 1769 c-93 -18 -144 -75 -144 -159 0 -81 26 -111 150 -172 125
-62 146 -87 119 -143 -28 -59 -127 -71 -217 -25 -57 29 -70 27 -70 -15 0 -22
7 -41 21 -54 49 -45 209 -54 285 -15 121 63 122 233 2 291 -12 6 -57 27 -99
47 -91 42 -112 73 -85 124 9 17 26 34 38 38 40 13 105 6 152 -15 52 -23 60
-17 54 36 -5 49 -111 81 -206 62z"/>
<path d="M1640 1755 c-10 -12 -12 -65 -8 -228 7 -265 20 -305 113 -348 78 -36
169 -20 239 42 l36 31 6 -41 c7 -41 7 -41 50 -41 l44 0 0 295 0 295 -24 6
c-13 3 -35 4 -47 2 l-24 -3 -5 -206 c-6 -230 -3 -221 -84 -280 -61 -45 -135
-36 -173 20 -16 22 -18 56 -21 241 -3 151 -7 217 -15 222 -21 13 -74 9 -87 -7z"/>
<path d="M1194 1504 c-14 -53 0 -59 154 -62 l141 -3 7 25 c15 60 12 61 -148
64 l-147 3 -7 -27z"/>
</g>
</svg>
